<svg width="16" height="9" viewBox="0 0 16 9" fill="none" xmlns="http://www.w3.org/2000/svg">
<path d="M4.13993 8.832C3.35593 8.832 2.64793 8.672 2.01593 8.352C1.39193 8.024 0.89993 7.54 0.53993 6.9C0.17993 6.26 -7.02962e-05 5.472 -7.02962e-05 4.536C-7.02962e-05 3.6 0.17993 2.792 0.53993 2.112C0.90793 1.432 1.40793 0.911999 2.03993 0.551998C2.67993 0.183998 3.40793 -1.66893e-06 4.22393 -1.66893e-06C5.16793 -1.66893e-06 5.89193 0.131998 6.39593 0.395998C6.89993 0.659998 7.15193 1.052 7.15193 1.572C7.15193 1.972 7.04393 2.304 6.82793 2.568C6.61193 2.824 6.31593 2.952 5.93993 2.952C5.61993 2.952 5.30793 2.912 5.00393 2.832C4.70793 2.744 4.35993 2.7 3.95993 2.7C3.44793 2.7 3.04393 2.848 2.74793 3.144C2.45193 3.44 2.30393 3.828 2.30393 4.308C2.30393 4.78 2.45193 5.176 2.74793 5.496C3.04393 5.808 3.44793 5.964 3.95993 5.964C4.23193 5.964 4.47993 5.944 4.70393 5.904C4.93593 5.856 5.15993 5.808 5.37593 5.76C5.59993 5.712 5.83993 5.688 6.09593 5.688C6.51993 5.688 6.83193 5.828 7.03193 6.108C7.23193 6.38 7.33193 6.72 7.33193 7.128C7.33193 7.536 7.18393 7.868 6.88793 8.124C6.59193 8.372 6.19993 8.552 5.71193 8.664C5.23193 8.776 4.70793 8.832 4.13993 8.832ZM9.22924 8.772C8.86124 8.772 8.55724 8.66 8.31724 8.436C8.07724 8.212 7.95724 7.928 7.95724 7.584V1.236C7.95724 0.883998 8.07324 0.591998 8.30524 0.359998C8.53724 0.119998 8.84124 -1.66893e-06 9.21724 -1.66893e-06C9.61724 -1.66893e-06 9.92924 0.119998 10.1532 0.359998C10.3772 0.591998 10.4892 0.875998 10.4892 1.212V3.432H12.7212V1.236C12.7212 0.883998 12.8372 0.591998 13.0692 0.359998C13.3012 0.119998 13.6132 -1.66893e-06 14.0052 -1.66893e-06C14.3972 -1.66893e-06 14.7052 0.119998 14.9292 0.359998C15.1532 0.591998 15.2652 0.875998 15.2652 1.212V7.584C15.2652 7.928 15.1452 8.212 14.9052 8.436C14.6732 8.66 14.3812 8.772 14.0292 8.772C13.6452 8.772 13.3292 8.66 13.0812 8.436C12.8412 8.212 12.7212 7.928 12.7212 7.584V5.196H10.4892V7.584C10.4892 7.928 10.3692 8.212 10.1292 8.436C9.89724 8.66 9.59724 8.772 9.22924 8.772Z" fill="white"/>
</svg>
