<svg width="55" height="10" viewBox="0 0 55 10" fill="none" xmlns="http://www.w3.org/2000/svg">
<path d="M4.13993 9.276C3.35593 9.276 2.64793 9.116 2.01593 8.796C1.39193 8.468 0.89993 7.984 0.53993 7.344C0.17993 6.704 -7.02962e-05 5.916 -7.02962e-05 4.98C-7.02962e-05 4.044 0.17993 3.236 0.53993 2.556C0.90793 1.876 1.40793 1.356 2.03993 0.995999C2.67993 0.627999 3.40793 0.443999 4.22393 0.443999C5.16793 0.443999 5.89193 0.575999 6.39593 0.839998C6.89993 1.104 7.15193 1.496 7.15193 2.016C7.15193 2.416 7.04393 2.748 6.82793 3.012C6.61193 3.268 6.31593 3.396 5.93993 3.396C5.61993 3.396 5.30793 3.356 5.00393 3.276C4.70793 3.188 4.35993 3.144 3.95993 3.144C3.44793 3.144 3.04393 3.292 2.74793 3.588C2.45193 3.884 2.30393 4.272 2.30393 4.752C2.30393 5.224 2.45193 5.62 2.74793 5.94C3.04393 6.252 3.44793 6.408 3.95993 6.408C4.23193 6.408 4.47993 6.388 4.70393 6.348C4.93593 6.3 5.15993 6.252 5.37593 6.204C5.59993 6.156 5.83993 6.132 6.09593 6.132C6.51993 6.132 6.83193 6.272 7.03193 6.552C7.23193 6.824 7.33193 7.164 7.33193 7.572C7.33193 7.98 7.18393 8.312 6.88793 8.568C6.59193 8.816 6.19993 8.996 5.71193 9.108C5.23193 9.22 4.70793 9.276 4.13993 9.276ZM10.9212 9.276C9.98524 9.276 9.23724 9 8.67724 8.448C8.12524 7.888 7.84924 7.1 7.84924 6.084C7.84924 5.46 7.97724 4.912 8.23324 4.44C8.48924 3.968 8.84524 3.6 9.30124 3.336C9.76524 3.064 10.3052 2.928 10.9212 2.928C11.6092 2.928 12.1812 3.064 12.6372 3.336C13.0932 3.6 13.4332 3.968 13.6572 4.44C13.8892 4.912 14.0052 5.46 14.0052 6.084C14.0052 7.1 13.7492 7.888 13.2372 8.448C12.7332 9 11.9612 9.276 10.9212 9.276ZM9.27724 5.88C9.27724 6.128 9.40124 6.304 9.64924 6.408C9.89724 6.504 10.3212 6.552 10.9212 6.552C11.5212 6.552 11.9452 6.504 12.1932 6.408C12.4412 6.304 12.5652 6.128 12.5652 5.88C12.5652 5.64 12.4412 5.472 12.1932 5.376C11.9452 5.28 11.5212 5.232 10.9212 5.232C10.3212 5.232 9.89724 5.28 9.64924 5.376C9.40124 5.472 9.27724 5.64 9.27724 5.88ZM15.7166 9.252C15.3566 9.252 15.0686 9.148 14.8526 8.94C14.6446 8.724 14.5406 8.46 14.5406 8.148V4.176C14.5406 3.84 14.6406 3.556 14.8406 3.324C15.0486 3.092 15.3406 2.976 15.7166 2.976C16.0846 2.976 16.3606 3.092 16.5446 3.324C16.7286 3.556 16.8206 3.848 16.8206 4.2V4.8H17.0366C17.0366 4.12 17.1806 3.648 17.4686 3.384C17.7566 3.112 18.1126 2.976 18.5366 2.976C19.0806 2.976 19.4806 3.144 19.7366 3.48C19.9926 3.816 20.1206 4.256 20.1206 4.8H20.3366C20.3366 4.344 20.4126 3.984 20.5646 3.72C20.7166 3.456 20.9086 3.268 21.1406 3.156C21.3806 3.036 21.6286 2.976 21.8846 2.976C22.4046 2.976 22.7846 3.1 23.0246 3.348C23.2726 3.596 23.4326 3.928 23.5046 4.344C23.5766 4.76 23.6126 5.228 23.6126 5.748V8.148C23.6126 8.46 23.5046 8.724 23.2886 8.94C23.0806 9.148 22.8006 9.252 22.4486 9.252C22.0966 9.252 21.8126 9.148 21.5966 8.94C21.3806 8.724 21.2726 8.46 21.2726 8.148V6.024C21.2726 5.736 21.2366 5.512 21.1646 5.352C21.0926 5.192 20.9486 5.112 20.7326 5.112C20.5006 5.112 20.3486 5.2 20.2766 5.376C20.2126 5.552 20.1806 5.776 20.1806 6.048V8.148C20.1806 8.46 20.0806 8.724 19.8806 8.94C19.6806 9.148 19.4046 9.252 19.0526 9.252C18.6926 9.252 18.4046 9.148 18.1886 8.94C17.9806 8.724 17.8766 8.46 17.8766 8.148V6.024C17.8766 5.736 17.8406 5.512 17.7686 5.352C17.6966 5.192 17.5566 5.112 17.3486 5.112C17.1166 5.112 16.9686 5.2 16.9046 5.376C16.8486 5.552 16.8206 5.776 16.8206 6.048V8.148C16.8206 8.46 16.7246 8.724 16.5326 8.94C16.3406 9.148 16.0686 9.252 15.7166 9.252ZM24.1852 1.584C24.1852 1.24 24.2892 0.963999 24.4972 0.755999C24.7132 0.539999 25.0092 0.431999 25.3852 0.431999C25.7852 0.431999 26.0812 0.535999 26.2732 0.743998C26.4732 0.951998 26.5732 1.228 26.5732 1.572C26.5732 1.908 26.4732 2.18 26.2732 2.388C26.0812 2.588 25.7852 2.688 25.3852 2.688C24.9932 2.688 24.6932 2.588 24.4852 2.388C24.2852 2.18 24.1852 1.912 24.1852 1.584ZM25.3852 9.252C25.0092 9.252 24.7292 9.148 24.5452 8.94C24.3612 8.732 24.2692 8.472 24.2692 8.16V4.056C24.2692 3.712 24.3612 3.44 24.5452 3.24C24.7292 3.04 25.0092 2.94 25.3852 2.94C25.7612 2.94 26.0412 3.04 26.2252 3.24C26.4172 3.44 26.5132 3.704 26.5132 4.032V8.16C26.5132 8.472 26.4132 8.732 26.2132 8.94C26.0212 9.148 25.7452 9.252 25.3852 9.252ZM30.1414 9.288C29.5174 9.288 28.9654 9.16 28.4854 8.904C28.0054 8.64 27.6294 8.268 27.3574 7.788C27.0854 7.308 26.9494 6.744 26.9494 6.096C26.9494 5.448 27.0854 4.884 27.3574 4.404C27.6294 3.924 28.0054 3.552 28.4854 3.288C28.9734 3.024 29.5334 2.892 30.1654 2.892C30.6614 2.892 31.0974 2.944 31.4734 3.048C31.8574 3.152 32.1574 3.308 32.3734 3.516C32.5974 3.724 32.7094 3.984 32.7094 4.296C32.7094 4.672 32.6134 4.968 32.4214 5.184C32.2294 5.392 31.9534 5.496 31.5934 5.496C31.3534 5.496 31.1134 5.46 30.8734 5.388C30.6414 5.316 30.3414 5.28 29.9734 5.28C29.6694 5.28 29.4134 5.328 29.2054 5.424C28.9974 5.52 28.8934 5.696 28.8934 5.952C28.8934 6.216 28.9974 6.408 29.2054 6.528C29.4134 6.64 29.6694 6.696 29.9734 6.696C30.2214 6.696 30.4294 6.672 30.5974 6.624C30.7654 6.576 30.9254 6.528 31.0774 6.48C31.2294 6.432 31.4014 6.408 31.5934 6.408C32.0014 6.408 32.3014 6.528 32.4934 6.768C32.6934 7 32.7934 7.3 32.7934 7.668C32.7934 7.98 32.6774 8.26 32.4454 8.508C32.2134 8.748 31.8974 8.94 31.4974 9.084C31.0974 9.22 30.6454 9.288 30.1414 9.288ZM34.6003 9.216C34.2323 9.216 33.9283 9.104 33.6883 8.88C33.4483 8.656 33.3283 8.372 33.3283 8.028V1.68C33.3283 1.328 33.4443 1.036 33.6763 0.803998C33.9083 0.563998 34.2123 0.443999 34.5883 0.443999C34.9883 0.443999 35.3003 0.563998 35.5243 0.803998C35.7483 1.036 35.8603 1.32 35.8603 1.656V3.876H38.0923V1.68C38.0923 1.328 38.2083 1.036 38.4403 0.803998C38.6723 0.563998 38.9843 0.443999 39.3763 0.443999C39.7683 0.443999 40.0763 0.563998 40.3003 0.803998C40.5243 1.036 40.6363 1.32 40.6363 1.656V8.028C40.6363 8.372 40.5163 8.656 40.2763 8.88C40.0443 9.104 39.7523 9.216 39.4003 9.216C39.0163 9.216 38.7003 9.104 38.4523 8.88C38.2123 8.656 38.0923 8.372 38.0923 8.028V5.64H35.8603V8.028C35.8603 8.372 35.7403 8.656 35.5003 8.88C35.2683 9.104 34.9683 9.216 34.6003 9.216ZM43.2508 9.252C42.6908 9.252 42.2348 9.04 41.8828 8.616C41.5308 8.192 41.3508 7.596 41.3428 6.828L41.3308 4.056C41.3308 3.712 41.4348 3.444 41.6428 3.252C41.8588 3.052 42.1508 2.952 42.5188 2.952C42.8708 2.952 43.1548 3.052 43.3708 3.252C43.5868 3.444 43.6948 3.712 43.6948 4.056V6.564C43.6948 7.164 43.9308 7.464 44.4028 7.464C44.6348 7.464 44.7908 7.38 44.8708 7.212C44.9508 7.036 44.9908 6.812 44.9908 6.54V4.056C44.9908 3.744 45.0988 3.484 45.3148 3.276C45.5308 3.06 45.8108 2.952 46.1548 2.952C46.5148 2.952 46.7908 3.06 46.9828 3.276C47.1828 3.484 47.2828 3.744 47.2828 4.056V7.992C47.2828 8.376 47.1948 8.684 47.0188 8.916C46.8508 9.14 46.5748 9.252 46.1908 9.252C45.8148 9.252 45.5188 9.14 45.3028 8.916C45.0948 8.684 44.9908 8.376 44.9908 7.992V7.788H44.7748C44.7748 8.252 44.6348 8.612 44.3548 8.868C44.0828 9.124 43.7148 9.252 43.2508 9.252ZM52.0691 9.252C51.6691 9.252 51.3451 9.168 51.0971 9C50.8571 8.832 50.6811 8.612 50.5691 8.34C50.4571 8.06 50.3931 7.76 50.3771 7.44H50.1491V8.112C50.1491 8.44 50.0491 8.712 49.8491 8.928C49.6491 9.144 49.3731 9.252 49.0211 9.252C48.6531 9.252 48.3731 9.144 48.1811 8.928C47.9971 8.712 47.9051 8.44 47.9051 8.112V1.2C47.9051 0.855999 47.9971 0.571998 48.1811 0.347998C48.3651 0.115999 48.6451 -1.43051e-06 49.0211 -1.43051e-06C49.3971 -1.43051e-06 49.6771 0.115999 49.8611 0.347998C50.0531 0.571998 50.1491 0.847998 50.1491 1.176V4.812L50.1971 4.824C50.2771 4.488 50.3771 4.18 50.4971 3.9C50.6251 3.62 50.8131 3.396 51.0611 3.228C51.3091 3.06 51.6531 2.976 52.0931 2.976C52.7731 2.976 53.2931 3.256 53.6531 3.816C54.0131 4.368 54.1931 5.108 54.1931 6.036C54.1931 7.1 54.0091 7.904 53.6411 8.448C53.2811 8.984 52.7571 9.252 52.0691 9.252ZM50.1251 5.94C50.1251 5.98 50.1251 6.02 50.1251 6.06C50.1331 6.092 50.1411 6.128 50.1491 6.168C50.1891 6.336 50.2851 6.464 50.4371 6.552C50.5971 6.632 50.8451 6.672 51.1811 6.672C51.5811 6.672 51.8531 6.612 51.9971 6.492C52.1491 6.372 52.2251 6.188 52.2251 5.94C52.2251 5.684 52.1531 5.496 52.0091 5.376C51.8651 5.256 51.5931 5.196 51.1931 5.196C50.8491 5.196 50.5971 5.24 50.4371 5.328C50.2851 5.408 50.1891 5.536 50.1491 5.712C50.1411 5.744 50.1331 5.78 50.1251 5.82C50.1251 5.852 50.1251 5.892 50.1251 5.94Z" fill="white"/>
</svg>
